# xmcd
# 
# Track frame offsets:
#   300
#   13852
#   30485
#   45495
#   59817
#   76620
#   97167
#   109915
#   123930
#   141115
#   156255
#   170202
#   186447
#   203325
# 
# Disc length: 2948 seconds
# 
# Revision: 1
# Processed by: cddbd v1.5.1PL2 Copyright (c) Steve Scherf et al.
# Submitted via: Synapstar 1.0 
# 
DISCID=c10b800e
DTITLE=Various Artist - SD009 - Country Hits Today
DYEAR=1900
DGENRE=Country
TTITLE0=Tracy Lawrence - As Any Fool Can See
TTITLE1=Joe Diffie - Pickup Man
TTITLE2=Neal McCoy - For A Change
TTITLE3=Collin Raye - My Kind Of Girl
TTITLE4=Blackhawk - Down In Flames
TTITLE5=Little Texas - Amy's Back In Austin
TTITLE6=Sawyer Brown - This Time
TTITLE7=Rick Trevino - Doctor Time
TTITLE8=James House - Little By Little
TTITLE9=Mark Collie - Hard Lovin' Woman
TTITLE10=Kathy Mattea - Maybe She's Human
TTITLE11=Lisa Brokop - Take That
TTITLE12=Tim McGraw - Not A Moment Too Soon
TTITLE13=Ken Mellons - I Can Bring Her Back
EXTD=MediaType: Karaoke CD+G Producer: StarDisc
EXTT0=
EXTT1=
EXTT2=
EXTT3=
EXTT4=
EXTT5=
EXTT6=
EXTT7=
EXTT8=
EXTT9=
EXTT10=
EXTT11=
EXTT12=
EXTT13=
PLAYORDER=
